<svg xmlns="http://www.w3.org/2000/svg" viewBox="0 0 100 100" fill="none">
  <defs>
    <linearGradient id="sgrad" x1="0" y1="0" x2="1" y2="1">
      <stop offset="0%" stop-color="#5045E5"/>
      <stop offset="100%" stop-color="#3D5AFE"/>
    </linearGradient>
  </defs>
  <!-- Arco superior aberto (azul royal) -->
  <path d="M 18 40 A 32 32 0 0 1 82 40" stroke="#3D5AFE" stroke-width="6" stroke-linecap="round" fill="none"/>
  <!-- Letra S estilizada -->
  <path d="M 30 28 Q 22 22 30 18 Q 44 14 56 22 Q 66 30 56 40 Q 46 48 36 52 Q 24 56 22 66 Q 22 80 38 84 Q 56 88 72 78"
        stroke="url(#sgrad)" stroke-width="11" stroke-linecap="round" stroke-linejoin="round" fill="none"/>
  <!-- M sólido em marinho -->
  <path d="M 30 28 L 30 84 L 40 84 L 40 50 L 50 70 L 60 50 L 60 84 L 70 84 L 70 28 L 60 28 L 50 50 L 40 28 Z"
        fill="#0A1A40"/>
  <!-- Arco inferior aberto (marinho) -->
  <path d="M 22 66 A 28 28 0 0 0 78 66" stroke="#0A1A40" stroke-width="6" stroke-linecap="round" fill="none"/>
</svg>
